<?xml version="1.0" encoding="UTF-8" standalone="no"?>
<!-- Created with Inkscape (http://www.inkscape.org/) -->

<svg
   xmlns:dc="http://purl.org/dc/elements/1.1/"
   xmlns:cc="http://creativecommons.org/ns#"
   xmlns:rdf="http://www.w3.org/1999/02/22-rdf-syntax-ns#"
   xmlns:svg="http://www.w3.org/2000/svg"
   xmlns="http://www.w3.org/2000/svg"
   version="1.1"
   width="227.74852"
   height="96.623932"
   id="svg2">
  <defs
     id="defs4" />
  <metadata
     id="metadata7">
    <rdf:RDF>
      <cc:Work
         rdf:about="">
        <dc:format>image/svg+xml</dc:format>
        <dc:type
           rdf:resource="http://purl.org/dc/dcmitype/StillImage" />
        <dc:title></dc:title>
      </cc:Work>
    </rdf:RDF>
  </metadata>
  <g
     transform="translate(-182.57945,-369.2854)"
     id="layer1">
    <path
       d="m 80.803683,35.460437 c 1.253282,0.516246 2.49282,1.060885 3.805264,1.410375 1.096547,0.16558 2.159845,0.475775 3.256219,0.644797 1.067464,0.08327 2.117291,0.159306 3.173586,0.335264 1.175436,0.209622 2.367751,0.260816 3.558456,0.296338 1.007413,0.01586 1.980029,0.31467 2.981163,0.428986 0.948643,0.04982 1.91799,0.188347 2.855309,-4.5e-5 1.01918,-0.161784 2.01744,-0.337758 2.97031,-0.745034 1.05054,-0.440022 2.0236,-1.012207 3.07537,-1.461913 1.1398,-0.444335 2.27943,-0.88293 3.43425,-1.287954 1.02046,-0.463257 2.01253,-0.959843 3.10372,-1.234128 1.15697,-0.197958 2.33265,-0.222463 3.50334,-0.236729 1.04282,-0.0054 2.08566,0.0017 3.12849,0.005 0.95963,-0.02387 1.8993,0.31828 2.70957,0.814 0.82951,0.654149 1.39946,1.511674 1.91168,2.422423 0.52648,1.171838 1.17971,2.279853 1.69007,3.45908 0.41362,1.065014 0.77423,2.138163 0.98107,3.262825 0.16023,1.021387 0.1733,2.057147 0.18374,3.08856 -0.0885,1.039364 -0.26045,2.075173 -0.44175,3.102868 -0.22259,1.108878 -0.63314,2.164438 -1.09984,3.190252 -0.48456,0.929729 -1.03685,1.826554 -1.72175,2.621851 -0.72655,0.820056 -1.62037,1.454931 -2.43996,2.172854 -0.94733,0.788275 -1.8676,1.612425 -2.85551,2.350091 -2.87598,1.979584 -5.95898,3.664148 -9.06252,5.243681 13.64046,-8.267332 1.87276,-0.352695 -1.36576,0.664201 -0.48918,0.1536 -0.98773,0.219499 -1.49447,0.28044 -1.00092,0.121486 -1.96465,0.106536 -2.94184,-0.123966 -0.83514,-0.209791 -1.63702,-0.702298 -2.35459,-1.181893 -0.78143,-0.381731 -1.549411,-0.775597 -2.314065,-1.190221 -0.797558,-0.376873 -1.682896,-0.41819 -2.548973,-0.457174 -0.130981,0.02991 -0.262188,0.05885 -0.392944,0.08973 -0.592574,0.139929 -0.209556,0.0091 -0.702725,0.296829 -0.107671,0.06282 -0.439817,0.234755 -0.331692,0.172722 6.454209,-3.702849 8.150429,-4.870014 5.921679,-3.350318 -0.61333,0.676344 -1.006752,1.518909 -1.299596,2.375272 -0.263477,0.816498 -0.281936,1.635386 -0.03585,2.454199 0.274888,0.819921 0.757166,1.521464 1.261606,2.211343 0.54037,0.737508 1.04642,1.49053 1.69491,2.138853 0.77467,0.534382 1.44009,1.198221 2.23162,1.709498 0.86542,0.429411 1.75901,0.806818 2.53415,1.390038 0.69712,0.392459 1.34586,0.866184 2.05532,1.240602 0.93265,0.479655 1.79256,1.089115 2.74736,1.52522 0.87693,0.684037 1.77226,1.350529 2.60492,2.087342 0.74712,0.523583 1.50617,1.032719 2.1881,1.643836 0.53893,0.638743 0.8627,1.410584 1.41218,2.042185 0.48814,0.675245 1.12114,1.219108 1.57467,1.919251 0.56144,0.647903 0.81437,1.467851 1.09585,2.26068 0.31599,0.95228 0.47151,1.936391 0.37557,2.935488 -0.12094,0.789285 -0.6614,1.396362 -1.16841,1.981876 -0.66507,0.486877 -1.26233,1.054497 -1.89584,1.579058 -3.07675,2.65768 -5.752,3.404594 -8.97736,4.739213 -1.08307,0.351565 -2.24705,0.338799 -3.37523,0.3759 -1.23388,0.0285 -2.46825,0.02101 -3.70236,0.01836 -1.10238,-0.003 -2.20476,-0.0046 -3.307139,-0.0053 -1.124536,0.02744 -2.219437,0.03837 -3.319351,-0.200274 -0.837361,-0.139766 -1.591469,-0.58065 -2.212127,-1.147468 -0.568893,-0.461731 -1.05963,-1.003589 -1.615266,-1.483442 -0.701978,-0.814934 -1.445245,-1.596344 -2.112342,-2.440148 -0.666968,-0.69364 -1.228176,-1.461849 -1.802354,-2.227994 -0.340023,-0.657036 -0.88127,-1.082695 -1.424935,-1.545631 -0.646357,-0.637701 -1.380312,-1.173749 -2.025398,-1.811383 -0.573124,-0.688623 -0.942332,-1.512158 -1.491792,-2.216352 -0.684025,-0.681344 -1.102495,-1.558376 -1.556717,-2.396393 -0.455757,-0.870385 -0.920734,-1.756507 -1.505,-2.548515 -0.629333,-0.792271 -1.518744,-1.425927 -2.499042,-1.690562 -1.241743,-0.116526 -2.433086,0.842161 -3.508521,1.377436 -0.255968,0.141247 -0.509242,0.28749 -0.767904,0.42374 -1.863811,0.981756 0.345403,-0.198298 -1.427539,0.66161 -0.193301,0.09375 -0.748652,0.421885 -0.56233,0.31493 6.334568,-3.636228 7.911115,-4.612156 5.492483,-3.125454 -0.941827,0.580027 -1.535285,1.52463 -2.020991,2.4916 -0.477441,0.936368 -0.779826,1.922503 -0.939727,2.957424 -0.120946,0.992862 -0.119344,1.994949 -0.122752,2.993521 0.06659,0.963983 -0.07241,1.898368 -0.306555,2.829277 -0.262481,0.956263 -0.707111,1.836245 -1.196349,2.692274 -0.639904,1.038006 -1.469181,1.942151 -2.330317,2.798924 -2.603139,2.563337 -5.794097,3.903128 -9.034534,5.786656 13.590968,-7.842703 1.923056,-1.095807 -0.966242,0.509321 -0.157525,0.0875 -0.342361,0.11342 -0.509335,0.18119 -0.502473,0.20393 -1.004905,0.41686 -1.492469,0.65439 -1.053269,0.59769 -2.205216,0.83612 -3.359136,1.15018 -1.175598,0.40871 -2.451409,0.58183 -3.606081,1.04022 -1.002204,0.4545 -1.976614,0.3018 -2.953774,-0.13061 -0.96008,-0.32103 -1.736043,-0.84778 -2.408666,-1.59643 -0.665984,-0.73588 -0.998666,-1.686666 -1.411895,-2.57256 -0.4862,-0.978297 -0.701845,-2.038255 -0.824823,-3.114285 -0.135923,-0.999642 -0.07108,-1.977203 0.110689,-2.962513 0.196914,-0.911804 0.519318,-1.785476 0.918941,-2.625866 0.509254,-1.02659 1.349949,-1.783153 2.215417,-2.503884 2.977652,-2.119685 6.159896,-4.002478 9.473217,-5.541342 0.167241,-0.09222 0.667338,-0.371779 0.501723,-0.276667 -2.00885,1.153674 -4.013848,2.314178 -6.031498,3.452392 -0.148615,0.08384 0.275793,-0.201975 0.422904,-0.288424 2.291576,-1.346617 4.628459,-2.617079 6.892097,-4.010148 1.982628,-1.220132 -4.02979,2.332171 -6.048772,3.491156 -0.135856,0.07799 0.266108,-0.165354 0.399162,-0.248031 0.141014,-0.100476 0.273102,-0.214835 0.423042,-0.301428 2.312171,-1.335319 4.622075,-2.675378 6.961114,-3.963053 0.156557,-0.08619 0.345389,-0.09319 0.514094,-0.152158 0.541612,-0.189305 1.006085,-0.472359 1.485081,-0.781615 0.171892,-0.09415 0.685485,-0.380312 0.515676,-0.282454 -2.005176,1.155548 -4.00785,2.315553 -6.021886,3.455588 -0.148958,0.08432 0.277555,-0.201333 0.425339,-0.28769 2.294615,-1.340839 4.625842,-2.619433 6.900836,-3.993299 2.009469,-1.213516 -4.065319,2.348558 -6.104101,3.512152 -0.12339,0.07042 0.23823,-0.154871 0.357344,-0.232306 0.860375,-0.516618 1.658556,-1.133695 2.438162,-1.763909 0.698872,-0.518221 1.18521,-1.242546 1.837899,-1.814246 0.67276,-0.603063 1.074703,-1.379703 1.318207,-2.235964 0.181184,-0.920866 0.264822,-1.874054 0.191035,-2.811017 -0.0658,-0.792753 -0.526858,-1.310202 -1.069784,-1.83636 -0.758161,-0.661158 -1.611681,-1.049011 -2.586321,-1.25617 -0.823148,-0.376516 -1.697813,-0.524035 -2.591413,-0.598148 -1.032767,-0.123764 -2.01894,0.0059 -3.006502,0.311529 -1.192252,0.377539 -2.249773,1.039737 -3.447522,1.397934 -0.96127,0.511543 -2.050281,0.752537 -3.11007,0.981951 -1.348754,0.250173 -2.727913,0.267533 -4.095603,0.293621 -1.254958,0.01466 -2.510052,0.0083 -3.765062,0.0054 -1.159617,0.04406 -2.292742,-0.0096 -3.436653,-0.191002 -1.115832,-0.08597 -2.034512,-0.749287 -2.996667,-1.253031 -0.954321,-0.378161 -1.841593,-0.947992 -2.592812,-1.646312 -0.81971,-0.881003 -1.175995,-1.977894 -1.41572,-3.130388 -0.246765,-1.126503 -0.125146,-2.249109 0.107182,-3.363492 0.227744,-1.021219 0.701067,-1.944275 1.316632,-2.781652 2.275034,-2.604601 5.443473,-4.558112 8.760845,-5.514141 0.977949,-0.419164 2.02105,-0.547959 3.006782,-0.945437 1.17326,-0.512572 2.335565,-0.9247 3.602686,-1.127375 1.242553,-0.171313 2.498589,-0.167178 3.749993,-0.172845 1.060063,-0.135195 2.090425,-0.297847 3.098784,-0.640824 0.882905,-0.455565 1.834788,-0.699398 2.719278,-1.163181 2.451868,-1.595498 -0.251911,0.175889 -5.538148,3.145791 -0.176251,0.09902 0.333874,-0.228451 0.49379,-0.352129 0.44353,-0.343021 0.836944,-0.747071 1.257162,-1.117339 0.803907,-0.504591 1.146147,-1.232361 1.475501,-2.08069 0.299232,-0.849955 0.463954,-1.737472 0.359459,-2.634998 -0.05988,-0.754389 -0.455305,-1.358821 -0.875765,-1.960365 -0.621509,-0.934868 -1.25077,-1.862096 -1.894974,-2.781629 -0.517845,-0.892887 -1.113635,-1.742386 -1.582156,-2.662426 -0.381366,-0.708295 -0.895646,-1.326433 -1.317659,-2.009247 -0.565283,-0.864677 -0.973912,-1.826699 -1.31371,-2.799501 -0.281733,-0.85932 -0.519767,-1.736719 -0.814427,-2.591342 -0.325686,-0.765234 -0.438751,-1.589407 -0.688885,-2.377864 -0.318588,-0.999257 -0.380084,-2.053537 -0.433662,-3.093822 -0.04186,-1.050087 -0.03957,-2.101248 -0.03941,-3.151969 -0.07819,-1.119377 0.122328,-2.195794 0.407922,-3.270988 0.208092,-1.065022 0.682568,-2.037212 1.101335,-3.027739 0.344741,-0.781685 0.698598,-1.559097 1.108778,-2.308857 1.700117,-2.301461 8.038231,-5.1373682 8.53749,-5.4302176 1.99411,-1.1696828 -4.00941,2.3028606 -6.014115,3.4542916 4.545218,-3.3800253 5.8,-3.947238 9.887639,-4.7136422 1.514345,-0.2446967 3.048449,-0.3098934 4.579358,-0.3512988 1.138871,-0.023396 2.278054,-0.018352 3.417086,-0.015842 1.011729,-0.081881 1.82538,0.4826675 2.640997,0.9911305 0.639127,0.7503344 1.298861,1.4847905 1.920918,2.2493755 0.479781,0.664596 0.879529,1.372764 1.277639,2.087938 0.398171,0.768045 0.461013,1.637411 0.690241,2.459303 0.281039,0.853914 0.290954,1.756494 0.433729,2.634532 0.234976,0.869935 0.365276,1.756801 0.439749,2.653166 0.03578,0.494479 0.0461,0.990158 0.05738,1.485616 0,0 -6.743966,3.452083 -6.743966,3.452083 l 0,0 c -0.007,-0.483124 -0.01298,-0.966391 -0.03851,-1.449001 -0.05449,-0.868293 -0.148818,-1.73314 -0.396497,-2.571026 -0.193206,-0.850149 -0.138203,-1.740666 -0.404597,-2.580545 -0.22183,-0.76887 -0.294192,-1.567489 -0.604818,-2.306742 -0.374892,-0.675526 -0.749284,-1.345273 -1.207824,-1.969073 -0.578978,-0.692756 -1.154509,-1.399289 -1.789583,-2.038291 -0.755018,-0.46207 -1.500854,-0.738196 -2.404711,-0.646181 -1.133876,-6.85e-4 -2.268035,-0.0011 -3.401414,0.03734 -1.508724,0.06105 -3.021327,0.151987 -4.504873,0.451355 -0.632037,0.13573 -1.298014,0.232448 -1.910554,0.445544 -0.163834,0.057 -0.626229,0.296514 -0.476944,0.208173 3.60252,-2.131836 8.276834,-4.7589146 5.602638,-3.254506 -2.31613,1.346565 -4.631857,2.693823 -6.948389,4.039696 -1.987881,1.154932 3.9725,-2.315486 5.962438,-3.466872 0.168911,-0.09773 -0.330695,0.207419 -0.499213,0.305827 -0.409785,0.239299 -0.84229,0.442654 -1.153788,0.816254 -0.561022,0.619521 -0.748316,1.439677 -1.18352,2.142508 -0.353033,0.997322 -0.934632,1.906232 -1.13511,2.955911 -0.28123,1.018674 -0.598037,2.018438 -0.496268,3.091765 -0.0013,1.040384 -0.0056,2.081025 0.0236,3.121111 0.03757,0.976562 0.06747,1.97148 0.339192,2.916286 0.253271,0.780733 0.375342,1.586278 0.674763,2.352273 0.322056,0.847822 0.527503,1.747254 0.822127,2.605267 0.305629,0.924313 0.696293,1.832796 1.228953,2.649877 0.435411,0.699552 0.964846,1.335683 1.350777,2.066772 0.445151,0.890952 1.032256,1.705333 1.527886,2.568759 0.643284,0.921232 1.274069,1.849036 1.896543,2.784294 0.477069,0.693136 0.943687,1.41062 1.046428,2.266377 0.170034,1.004101 0.09881,1.982726 -0.19596,2.963865 -0.291164,0.898154 -0.536367,1.859862 -1.304859,2.4746 -0.442121,0.303545 -0.448902,0.279251 -0.840151,0.671079 -0.323925,0.324405 -0.489963,0.603132 -0.891991,0.845885 -2.301341,1.389598 -4.627885,2.737095 -6.950568,4.090718 -0.158692,0.09248 -0.328369,0.164677 -0.492554,0.247016 -0.91906,0.383457 -1.852546,0.733201 -2.7853,1.079009 -1.048647,0.287651 -2.147661,0.397421 -3.229827,0.466154 -1.226663,0.0171 -2.459962,0.04165 -3.667282,0.284306 -1.222577,0.282917 -2.354897,0.795679 -3.5332,1.21782 -1.000893,0.31366 -2.036969,0.51438 -2.99389,0.961912 -2.500833,1.257436 -0.629501,0.327568 5.632278,-3.32803 0.137464,-0.08025 -0.279741,0.153387 -0.409736,0.245244 -0.0063,0.0045 -0.70503,0.582158 -0.721553,0.598627 -0.11694,0.116556 -0.214012,0.251475 -0.321018,0.377212 -0.705427,0.662095 -1.197875,1.52831 -1.46264,2.456955 -0.310162,0.991429 -0.440377,2.034424 -0.25861,3.064073 0.177505,0.996394 0.429908,1.961269 1.16791,2.70069 0.75148,0.627099 1.601325,1.106697 2.497525,1.496849 0.904296,0.492489 1.790591,0.98473 2.847385,1.033314 1.121712,0.137641 2.247373,0.104686 3.375834,0.10603 1.250884,0.0022 2.502015,0.0077 3.75264,-0.02241 1.340825,-0.04367 2.693329,-0.09097 4.000721,-0.420696 1.047927,-0.275949 2.071322,-0.606246 3.064035,-1.04166 1.157993,-0.462572 2.26411,-1.064268 3.490797,-1.341839 1.05299,-0.196991 2.100746,-0.25666 3.165964,-0.09496 0.912084,0.131688 1.784857,0.381693 2.653552,0.687099 1.049704,0.324801 1.995394,0.832243 2.802896,1.58936 0.637223,0.646497 1.182945,1.34513 1.318069,2.273043 0.16618,1.007073 0.04431,2.042775 -0.07001,3.051612 -0.18497,0.97691 -0.506317,1.855397 -1.138959,2.638198 -0.833556,0.856868 0.234476,-0.202678 -0.653479,0.559266 -0.342775,0.294131 -0.548074,0.651882 -0.824336,0.995718 -0.09817,0.122189 -0.219364,0.22395 -0.329047,0.335925 -0.821359,0.587791 -1.56483,1.27755 -2.408951,1.838343 -2.50288,1.41176 -3.392449,1.911082 -7.216185,4.20825 -2.000665,1.20193 4.030139,-2.355285 6.051521,-3.522038 0.14755,-0.08517 -0.282885,0.190275 -0.42953,0.276991 -2.304986,1.363023 -4.615369,2.716904 -6.925012,4.07202 -0.168567,0.0989 -0.339714,0.193337 -0.509571,0.290006 -0.514827,0.262566 -1.031376,0.462302 -1.563755,0.682755 -0.157907,0.06539 -0.613968,0.298946 -0.466924,0.211836 4.966216,-2.942029 8.156334,-4.649424 5.575701,-3.262981 -2.319277,2.063736 -0.819611,0.773575 -7.278054,4.324369 -2.04478,1.124201 4.026646,-2.359314 6.048948,-3.523464 0.147679,-0.08501 -0.277418,0.198688 -0.424065,0.285466 -6.651186,3.935808 -4.573754,2.861044 -7.438317,4.325799 -2.317818,1.247695 -5.614231,3.188357 4.972392,-2.924429 1.407419,-0.812653 -2.925457,1.593467 -1.490278,0.931963 -0.888268,0.60165 -1.735857,1.309179 -2.343413,2.201472 -0.458902,0.759559 -0.742282,1.568948 -1.020651,2.408631 -0.157771,0.930038 -0.369245,1.821156 -0.204999,2.775712 0.08745,0.997444 0.250228,1.983576 0.702688,2.889764 0.382634,0.812106 0.669485,1.698397 1.291108,2.36681 0.628947,0.635154 1.364588,1.023119 2.216515,1.296693 0.945092,0.25314 1.76316,0.0982 2.658651,-0.276907 1.215282,-0.321001 2.414538,-0.693669 3.631873,-1.006795 1.143284,-0.299808 2.221608,-0.72624 3.283212,-1.247485 0.502349,-0.209481 1.010245,-0.412547 1.505995,-0.637295 0.159153,-0.07215 0.622642,-0.316687 0.471967,-0.228184 -1.233013,0.724247 -16.213873,9.376885 0.944009,-0.536921 -11.478137,6.684096 -5.947619,3.903722 -3.867092,1.846748 0.910622,-0.758194 1.69458,-1.662949 2.413652,-2.602989 0.52107,-0.789989 0.989987,-1.615545 1.273807,-2.522709 0.325211,-0.837035 0.458934,-1.726638 0.407598,-2.623238 -4.64e-4,-1.027142 -0.0063,-2.056191 0.07908,-3.080644 0.118912,-1.092248 0.332217,-2.168778 0.846975,-3.152423 0.419336,-1.084506 1.027805,-2.081838 1.840588,-2.919392 3.376783,-1.998205 6.726121,-4.016685 10.249198,-5.735936 1.224981,-0.615712 2.476853,-1.407836 3.876631,-0.876421 1.059464,0.48771 2.04591,1.099453 2.736454,2.066508 0.590629,0.828569 1.0904,1.729089 1.554487,2.633474 0.437608,0.806241 0.841403,1.63838 1.498262,2.296305 0.509482,0.684904 0.885053,1.456333 1.430263,2.114649 0.652336,0.602933 1.34608,1.159309 1.996373,1.764627 0.60344,0.483865 1.120036,1.034778 1.520538,1.702597 0.55982,0.765611 1.146316,1.502063 1.788039,2.203937 0.647527,0.802104 1.345563,1.566148 2.042304,2.325271 0.543448,0.482453 1.034669,1.021498 1.607296,1.470655 0.594873,0.447268 1.249203,0.734501 1.995543,0.819967 1.07271,0.158059 2.1593,0.06403 3.24009,0.08906 1.10246,0.0012 2.20493,0.0036 3.3074,0.0057 1.22739,8.53e-4 2.45544,0.0062 3.682,-0.04624 1.093,-0.06083 2.20795,-0.108199 3.21402,-0.58783 2.70741,-1.141287 7.64801,-2.99619 -4.02941,2.705332 0.75054,-0.368065 1.22901,-1.054438 1.92709,-1.500228 0.39016,-0.213474 0.48964,-0.382522 0.74555,-0.732152 0.2071,-0.282959 0.53788,-0.385375 0.653,-0.734731 0.16696,-0.890443 0.0739,-1.751669 -0.20934,-2.617094 -0.25523,-0.741224 -0.47993,-1.497297 -1.00472,-2.100434 -0.44207,-0.665423 -1.07007,-1.183219 -1.52755,-1.839806 -0.50641,-0.614045 -0.84236,-1.33219 -1.34957,-1.939906 -0.7069,-0.580847 -1.46454,-1.087763 -2.18851,-1.644489 -0.80468,-0.674984 -1.61557,-1.354673 -2.49985,-1.923423 -0.941,-0.488609 -1.83521,-1.062532 -2.77115,-1.561519 -0.70694,-0.419981 -1.40488,-0.857804 -2.09555,-1.30308 -0.81266,-0.518618 -1.705215,-0.883728 -2.529362,-1.382516 -0.801209,-0.57275 -1.543212,-1.222574 -2.311486,-1.83731 -0.656521,-0.687141 -1.190561,-1.465243 -1.750163,-2.230714 -0.551141,-0.751691 -1.058694,-1.529206 -1.37685,-2.413024 -0.33725,-0.925426 -0.412396,-1.904838 -0.175345,-2.866709 0.240842,-0.954725 0.629707,-1.851767 1.163167,-2.68032 1.524627,-2.605049 0.144408,-0.378533 6.993939,-4.30076 0.48885,-0.279931 1.11428,-0.264389 1.6547,-0.257854 0.95023,0.09026 1.89335,0.244264 2.73404,0.727898 0.76843,0.429287 1.58413,0.764481 2.33579,1.223713 0.70058,0.398506 1.38191,0.858425 2.20086,0.95277 0.92338,0.137852 1.86377,0.0435 2.78284,-0.09549 0.47923,-0.104499 0.93392,-0.222065 1.38306,-0.424881 0.14987,-0.06768 0.58309,-0.303828 0.44113,-0.220834 -2.7701,1.619483 -14.44497,8.330738 0.88621,-0.491562 0.98645,-0.546119 -0.14085,0.06995 0.8961,-0.470724 0.15731,-0.08202 0.62077,-0.34369 0.46759,-0.254203 -10.83552,6.329985 -7.31459,4.503053 -5.26448,2.980118 1.07274,-0.597957 1.9365,-1.499576 2.88871,-2.26641 0.84604,-0.669672 1.66975,-1.370451 2.47305,-2.092227 0.74366,-0.702955 1.29825,-1.529535 1.81304,-2.41196 0.51317,-0.955751 0.91599,-1.969486 1.17889,-3.021299 0.2518,-0.966026 0.284,-1.980017 0.51584,-2.953688 -0.004,-0.993987 -0.003,-1.991574 -0.12698,-2.979555 -0.16881,-1.075214 -0.50833,-2.091003 -0.89558,-3.106316 -0.49084,-1.158661 -1.14296,-2.237564 -1.65003,-3.388659 -0.44001,-0.784995 -0.91838,-1.557656 -1.68892,-2.059514 -0.7965,-0.367551 -1.61259,-0.570281 -2.49734,-0.50596 -1.03916,-0.0034 -2.0785,-0.01089 -3.11754,0.01002 -1.13454,0.03473 -2.2843,0.07627 -3.38014,0.40083 -1.04747,0.370316 -2.0321,0.890346 -3.07753,1.267839 -1.1398,0.428803 -2.28728,0.836858 -3.40272,1.32804 -1.037771,0.473098 -2.010678,1.086118 -3.109337,1.418713 -1.00677,0.29498 -2.034604,0.486625 -3.0775,0.604315 -0.989581,0.02919 -1.981672,-0.01956 -2.96359,-0.149366 -0.976748,-0.150684 -1.942931,-0.397231 -2.938983,-0.36987 -1.209732,-0.05549 -2.416156,-0.154543 -3.609688,-0.368299 -1.057346,-0.152965 -2.127722,-0.159345 -3.181085,-0.345947 -1.105971,-0.212451 -2.20526,-0.466304 -3.303467,-0.713026 -1.328803,-0.41285 -2.614916,-0.953157 -3.882267,-1.525116 0,0 6.329037,-4.164281 6.329037,-4.164281 z"
       transform="translate(154.0625,361.9375)"
       id="path3329"
       style="fill:#008080;fill-opacity:1;stroke:#000000;stroke-width:1;stroke-opacity:1" />
    <text
       x="299.01938"
       y="405.35974"
       id="text3331"
       xml:space="preserve"
       style="font-size:40px;font-style:normal;font-weight:normal;line-height:125%;letter-spacing:0px;word-spacing:0px;fill:#000000;fill-opacity:1;stroke:none;font-family:Sans"><tspan
         x="299.01938"
         y="405.35974"
         id="tspan3333">Some</tspan><tspan
         x="299.01938"
         y="455.35974"
         id="tspan3337">icon</tspan></text>
  </g>
</svg>
